<mxfile host="app.diagrams.net" modified="2024-04-21T13:18:57.904Z" agent="Mozilla/5.0 (Windows NT 10.0; Win64; x64) AppleWebKit/537.36 (KHTML, like Gecko) Chrome/122.0.0.0 Safari/537.36 OPR/108.0.0.0" etag="xsdSfgU3v9w-z28eO08F" version="24.2.7" type="google">
  <diagram name="Página-1" id="E35-NctK-QVKj6qJqTT_">
    <mxGraphModel grid="1" page="1" gridSize="10" guides="1" tooltips="1" connect="1" arrows="1" fold="1" pageScale="1" pageWidth="827" pageHeight="1169" math="0" shadow="0">
      <root>
        <mxCell id="0" />
        <mxCell id="1" parent="0" />
        <mxCell id="6ymYnt-OKIHyIZnd5Fwz-16" style="edgeStyle=orthogonalEdgeStyle;rounded=0;orthogonalLoop=1;jettySize=auto;html=1;entryX=0;entryY=0.5;entryDx=0;entryDy=0;" edge="1" parent="1" source="6ymYnt-OKIHyIZnd5Fwz-1" target="6ymYnt-OKIHyIZnd5Fwz-6">
          <mxGeometry relative="1" as="geometry" />
        </mxCell>
        <mxCell id="6ymYnt-OKIHyIZnd5Fwz-17" style="edgeStyle=orthogonalEdgeStyle;rounded=0;orthogonalLoop=1;jettySize=auto;html=1;entryX=0;entryY=0.5;entryDx=0;entryDy=0;" edge="1" parent="1" source="6ymYnt-OKIHyIZnd5Fwz-1" target="6ymYnt-OKIHyIZnd5Fwz-7">
          <mxGeometry relative="1" as="geometry" />
        </mxCell>
        <mxCell id="8uNOAsqcAC4Zf92Hd2os-16" style="edgeStyle=orthogonalEdgeStyle;rounded=0;orthogonalLoop=1;jettySize=auto;html=1;" edge="1" parent="1" source="6ymYnt-OKIHyIZnd5Fwz-1" target="8uNOAsqcAC4Zf92Hd2os-9">
          <mxGeometry relative="1" as="geometry" />
        </mxCell>
        <mxCell id="6ymYnt-OKIHyIZnd5Fwz-1" value="Inventarios forestales" style="shape=cylinder3;whiteSpace=wrap;html=1;boundedLbl=1;backgroundOutline=1;size=15;" vertex="1" parent="1">
          <mxGeometry x="-280" y="-80" width="100" height="90" as="geometry" />
        </mxCell>
        <mxCell id="6ymYnt-OKIHyIZnd5Fwz-20" style="edgeStyle=orthogonalEdgeStyle;rounded=0;orthogonalLoop=1;jettySize=auto;html=1;entryX=0.5;entryY=1;entryDx=0;entryDy=0;" edge="1" parent="1" source="6ymYnt-OKIHyIZnd5Fwz-2" target="6ymYnt-OKIHyIZnd5Fwz-7">
          <mxGeometry relative="1" as="geometry" />
        </mxCell>
        <mxCell id="6ymYnt-OKIHyIZnd5Fwz-21" style="edgeStyle=orthogonalEdgeStyle;rounded=0;orthogonalLoop=1;jettySize=auto;html=1;entryX=0.5;entryY=0;entryDx=0;entryDy=0;" edge="1" parent="1" source="6ymYnt-OKIHyIZnd5Fwz-2" target="6ymYnt-OKIHyIZnd5Fwz-3">
          <mxGeometry relative="1" as="geometry" />
        </mxCell>
        <mxCell id="6ymYnt-OKIHyIZnd5Fwz-2" value="Mapa de vegetación" style="shape=parallelogram;perimeter=parallelogramPerimeter;whiteSpace=wrap;html=1;fixedSize=1;" vertex="1" parent="1">
          <mxGeometry x="55" y="290" width="150" height="60" as="geometry" />
        </mxCell>
        <mxCell id="6ymYnt-OKIHyIZnd5Fwz-22" style="edgeStyle=orthogonalEdgeStyle;rounded=0;orthogonalLoop=1;jettySize=auto;html=1;" edge="1" parent="1" source="6ymYnt-OKIHyIZnd5Fwz-3" target="6ymYnt-OKIHyIZnd5Fwz-13">
          <mxGeometry relative="1" as="geometry" />
        </mxCell>
        <mxCell id="6ymYnt-OKIHyIZnd5Fwz-3" value="Análisis de proximidad" style="rhombus;whiteSpace=wrap;html=1;" vertex="1" parent="1">
          <mxGeometry x="90" y="440" width="80" height="80" as="geometry" />
        </mxCell>
        <mxCell id="6ymYnt-OKIHyIZnd5Fwz-18" style="edgeStyle=orthogonalEdgeStyle;rounded=0;orthogonalLoop=1;jettySize=auto;html=1;entryX=0;entryY=0.5;entryDx=0;entryDy=0;" edge="1" parent="1" source="6ymYnt-OKIHyIZnd5Fwz-6" target="6ymYnt-OKIHyIZnd5Fwz-8">
          <mxGeometry relative="1" as="geometry" />
        </mxCell>
        <mxCell id="6ymYnt-OKIHyIZnd5Fwz-6" value="Imputación" style="rhombus;whiteSpace=wrap;html=1;" vertex="1" parent="1">
          <mxGeometry x="310" y="120" width="90" height="50" as="geometry" />
        </mxCell>
        <mxCell id="6ymYnt-OKIHyIZnd5Fwz-19" style="edgeStyle=orthogonalEdgeStyle;rounded=0;orthogonalLoop=1;jettySize=auto;html=1;entryX=0;entryY=0.5;entryDx=0;entryDy=0;" edge="1" parent="1" source="6ymYnt-OKIHyIZnd5Fwz-7" target="6ymYnt-OKIHyIZnd5Fwz-11">
          <mxGeometry relative="1" as="geometry" />
        </mxCell>
        <mxCell id="6ymYnt-OKIHyIZnd5Fwz-7" value="Interpolación" style="rhombus;whiteSpace=wrap;html=1;" vertex="1" parent="1">
          <mxGeometry x="310" y="195" width="90" height="50" as="geometry" />
        </mxCell>
        <mxCell id="6ymYnt-OKIHyIZnd5Fwz-8" value="Densidad de los pinares de repoblación 2" style="shape=parallelogram;perimeter=parallelogramPerimeter;whiteSpace=wrap;html=1;fixedSize=1;" vertex="1" parent="1">
          <mxGeometry x="500" y="115" width="120" height="60" as="geometry" />
        </mxCell>
        <mxCell id="6ymYnt-OKIHyIZnd5Fwz-9" value="No tiene sentido reducir la densidad de los pinares poco denso tampoco de los que tienen densidad media" style="text;html=1;strokeColor=#6c8ebf;fillColor=#dae8fc;align=center;verticalAlign=middle;whiteSpace=wrap;rounded=0;" vertex="1" parent="1">
          <mxGeometry x="1090" y="42.5" width="230" height="55" as="geometry" />
        </mxCell>
        <mxCell id="6ymYnt-OKIHyIZnd5Fwz-11" value="Densidad de los pinares de repoblación 3" style="shape=parallelogram;perimeter=parallelogramPerimeter;whiteSpace=wrap;html=1;fixedSize=1;" vertex="1" parent="1">
          <mxGeometry x="500" y="190" width="120" height="60" as="geometry" />
        </mxCell>
        <mxCell id="6ymYnt-OKIHyIZnd5Fwz-13" value="Mapa de proximidad (distancia de cada píxel con encinas más cercano)" style="shape=parallelogram;perimeter=parallelogramPerimeter;whiteSpace=wrap;html=1;fixedSize=1;" vertex="1" parent="1">
          <mxGeometry x="370" y="450" width="300" height="60" as="geometry" />
        </mxCell>
        <mxCell id="6ymYnt-OKIHyIZnd5Fwz-15" style="edgeStyle=orthogonalEdgeStyle;rounded=0;orthogonalLoop=1;jettySize=auto;html=1;" edge="1" parent="1" source="6ymYnt-OKIHyIZnd5Fwz-14" target="6ymYnt-OKIHyIZnd5Fwz-13">
          <mxGeometry relative="1" as="geometry" />
        </mxCell>
        <mxCell id="6ymYnt-OKIHyIZnd5Fwz-14" value="Los píxeles más cercanos a encinares son más adecuados para nuestro trabajo" style="text;html=1;strokeColor=none;fillColor=none;align=center;verticalAlign=middle;whiteSpace=wrap;rounded=0;" vertex="1" parent="1">
          <mxGeometry x="405" y="380" width="230" height="30" as="geometry" />
        </mxCell>
        <mxCell id="6ymYnt-OKIHyIZnd5Fwz-33" style="edgeStyle=orthogonalEdgeStyle;rounded=0;orthogonalLoop=1;jettySize=auto;html=1;entryX=0;entryY=0.5;entryDx=0;entryDy=0;" edge="1" parent="1" source="6ymYnt-OKIHyIZnd5Fwz-23" target="6ymYnt-OKIHyIZnd5Fwz-32">
          <mxGeometry relative="1" as="geometry" />
        </mxCell>
        <mxCell id="6ymYnt-OKIHyIZnd5Fwz-23" value="Mapa de carreteras" style="shape=parallelogram;perimeter=parallelogramPerimeter;whiteSpace=wrap;html=1;fixedSize=1;" vertex="1" parent="1">
          <mxGeometry x="70" y="575" width="140" height="60" as="geometry" />
        </mxCell>
        <mxCell id="6ymYnt-OKIHyIZnd5Fwz-31" style="edgeStyle=orthogonalEdgeStyle;rounded=0;orthogonalLoop=1;jettySize=auto;html=1;" edge="1" parent="1">
          <mxGeometry relative="1" as="geometry">
            <mxPoint x="340" y="605" as="targetPoint" />
            <mxPoint x="310" y="605" as="sourcePoint" />
          </mxGeometry>
        </mxCell>
        <mxCell id="6ymYnt-OKIHyIZnd5Fwz-30" style="edgeStyle=orthogonalEdgeStyle;rounded=0;orthogonalLoop=1;jettySize=auto;html=1;" edge="1" parent="1" source="6ymYnt-OKIHyIZnd5Fwz-25" target="6ymYnt-OKIHyIZnd5Fwz-26">
          <mxGeometry relative="1" as="geometry" />
        </mxCell>
        <mxCell id="6ymYnt-OKIHyIZnd5Fwz-25" value="Calcular distancias" style="rhombus;whiteSpace=wrap;html=1;" vertex="1" parent="1">
          <mxGeometry x="344" y="560" width="86" height="90" as="geometry" />
        </mxCell>
        <mxCell id="6ymYnt-OKIHyIZnd5Fwz-26" value="Mapa de distancias a carreteras" style="shape=parallelogram;perimeter=parallelogramPerimeter;whiteSpace=wrap;html=1;fixedSize=1;" vertex="1" parent="1">
          <mxGeometry x="460" y="575" width="170" height="60" as="geometry" />
        </mxCell>
        <mxCell id="6ymYnt-OKIHyIZnd5Fwz-29" style="edgeStyle=orthogonalEdgeStyle;rounded=0;orthogonalLoop=1;jettySize=auto;html=1;entryX=0.5;entryY=1;entryDx=0;entryDy=0;" edge="1" parent="1" source="6ymYnt-OKIHyIZnd5Fwz-27" target="6ymYnt-OKIHyIZnd5Fwz-26">
          <mxGeometry relative="1" as="geometry" />
        </mxCell>
        <mxCell id="6ymYnt-OKIHyIZnd5Fwz-27" value="Los sitios más cercanos a carreteras son más adecuados para nuestro trabajo" style="text;html=1;strokeColor=none;fillColor=none;align=center;verticalAlign=middle;whiteSpace=wrap;rounded=0;" vertex="1" parent="1">
          <mxGeometry x="430" y="670" width="230" height="30" as="geometry" />
        </mxCell>
        <mxCell id="6ymYnt-OKIHyIZnd5Fwz-32" value="Convertir a ráster" style="rhombus;whiteSpace=wrap;html=1;" vertex="1" parent="1">
          <mxGeometry x="230" y="560" width="86" height="90" as="geometry" />
        </mxCell>
        <mxCell id="6ymYnt-OKIHyIZnd5Fwz-49" value="" style="edgeStyle=orthogonalEdgeStyle;rounded=0;orthogonalLoop=1;jettySize=auto;html=1;" edge="1" parent="1" source="6ymYnt-OKIHyIZnd5Fwz-34" target="6ymYnt-OKIHyIZnd5Fwz-48">
          <mxGeometry relative="1" as="geometry" />
        </mxCell>
        <mxCell id="6ymYnt-OKIHyIZnd5Fwz-34" value="Mapa de abundancia de dispersores (arrendajos, roedores)" style="shape=parallelogram;perimeter=parallelogramPerimeter;whiteSpace=wrap;html=1;fixedSize=1;" vertex="1" parent="1">
          <mxGeometry x="860" y="770" width="250" height="60" as="geometry" />
        </mxCell>
        <mxCell id="6ymYnt-OKIHyIZnd5Fwz-46" style="edgeStyle=orthogonalEdgeStyle;rounded=0;orthogonalLoop=1;jettySize=auto;html=1;" edge="1" parent="1" source="6ymYnt-OKIHyIZnd5Fwz-37">
          <mxGeometry relative="1" as="geometry">
            <mxPoint x="870" y="800" as="targetPoint" />
          </mxGeometry>
        </mxCell>
        <mxCell id="6ymYnt-OKIHyIZnd5Fwz-37" value="Procedimiento para espacializar la distribución de los dispersores" style="rhombus;whiteSpace=wrap;html=1;fontSize=12;" vertex="1" parent="1">
          <mxGeometry x="390" y="720" width="175" height="160" as="geometry" />
        </mxCell>
        <mxCell id="6ymYnt-OKIHyIZnd5Fwz-45" style="edgeStyle=orthogonalEdgeStyle;rounded=0;orthogonalLoop=1;jettySize=auto;html=1;entryX=0;entryY=0.5;entryDx=0;entryDy=0;" edge="1" parent="1" source="6ymYnt-OKIHyIZnd5Fwz-39" target="6ymYnt-OKIHyIZnd5Fwz-34">
          <mxGeometry relative="1" as="geometry" />
        </mxCell>
        <mxCell id="6ymYnt-OKIHyIZnd5Fwz-39" value="Procedimiento para espacializar la abundancia de los dispersores" style="rhombus;whiteSpace=wrap;html=1;fontSize=12;" vertex="1" parent="1">
          <mxGeometry x="610" y="720" width="175" height="160" as="geometry" />
        </mxCell>
        <mxCell id="6ymYnt-OKIHyIZnd5Fwz-40" value="Igual nos sirve un mapa con la distribución de las poblaciones de dispersores" style="text;html=1;strokeColor=none;fillColor=none;align=center;verticalAlign=middle;whiteSpace=wrap;rounded=0;" vertex="1" parent="1">
          <mxGeometry x="700" y="870" width="250" height="30" as="geometry" />
        </mxCell>
        <mxCell id="6ymYnt-OKIHyIZnd5Fwz-41" value="Molaría tener un mapa continuo de la abundancia de dispersores" style="text;html=1;strokeColor=none;fillColor=none;align=center;verticalAlign=middle;whiteSpace=wrap;rounded=0;" vertex="1" parent="1">
          <mxGeometry x="470" y="870" width="230" height="30" as="geometry" />
        </mxCell>
        <mxCell id="6ymYnt-OKIHyIZnd5Fwz-42" value="Atlas de fauna&lt;span style=&quot;white-space: pre;&quot;&gt;&lt;/span&gt;" style="shape=cylinder3;whiteSpace=wrap;html=1;boundedLbl=1;backgroundOutline=1;size=15;" vertex="1" parent="1">
          <mxGeometry x="180" y="750" width="100" height="90" as="geometry" />
        </mxCell>
        <mxCell id="6ymYnt-OKIHyIZnd5Fwz-43" value="&lt;b&gt;Google Earth Engine&lt;/b&gt;" style="text;html=1;strokeColor=none;fillColor=none;align=center;verticalAlign=middle;whiteSpace=wrap;rounded=0;" vertex="1" parent="1">
          <mxGeometry x="205" y="1100" width="230" height="30" as="geometry" />
        </mxCell>
        <mxCell id="6ymYnt-OKIHyIZnd5Fwz-51" style="edgeStyle=orthogonalEdgeStyle;rounded=0;orthogonalLoop=1;jettySize=auto;html=1;" edge="1" parent="1" source="6ymYnt-OKIHyIZnd5Fwz-48" target="6ymYnt-OKIHyIZnd5Fwz-34">
          <mxGeometry relative="1" as="geometry" />
        </mxCell>
        <mxCell id="6ymYnt-OKIHyIZnd5Fwz-48" value="Cálculo de distancias" style="rhombus;whiteSpace=wrap;html=1;" vertex="1" parent="1">
          <mxGeometry x="1130" y="760" width="80" height="80" as="geometry" />
        </mxCell>
        <mxCell id="6ymYnt-OKIHyIZnd5Fwz-54" value="" style="edgeStyle=orthogonalEdgeStyle;rounded=0;orthogonalLoop=1;jettySize=auto;html=1;" edge="1" parent="1" source="6ymYnt-OKIHyIZnd5Fwz-52" target="6ymYnt-OKIHyIZnd5Fwz-53">
          <mxGeometry relative="1" as="geometry" />
        </mxCell>
        <mxCell id="6ymYnt-OKIHyIZnd5Fwz-52" value="Landsat o Sentinel" style="shape=cylinder3;whiteSpace=wrap;html=1;boundedLbl=1;backgroundOutline=1;size=15;" vertex="1" parent="1">
          <mxGeometry x="170" y="1015" width="100" height="90" as="geometry" />
        </mxCell>
        <mxCell id="6ymYnt-OKIHyIZnd5Fwz-60" style="edgeStyle=orthogonalEdgeStyle;rounded=0;orthogonalLoop=1;jettySize=auto;html=1;entryX=0;entryY=0.5;entryDx=0;entryDy=0;" edge="1" parent="1" source="6ymYnt-OKIHyIZnd5Fwz-53" target="6ymYnt-OKIHyIZnd5Fwz-57">
          <mxGeometry relative="1" as="geometry" />
        </mxCell>
        <mxCell id="6ymYnt-OKIHyIZnd5Fwz-53" value="Descarga de datos. Creación de NDVI" style="rhombus;whiteSpace=wrap;html=1;" vertex="1" parent="1">
          <mxGeometry x="316" y="1020" width="80" height="80" as="geometry" />
        </mxCell>
        <mxCell id="6ymYnt-OKIHyIZnd5Fwz-56" value="A más alta tendencia de NDVI mejor para albergar tratamientos forestales" style="text;html=1;strokeColor=none;fillColor=none;align=center;verticalAlign=middle;whiteSpace=wrap;rounded=0;" vertex="1" parent="1">
          <mxGeometry x="630" y="1100" width="230" height="30" as="geometry" />
        </mxCell>
        <mxCell id="6ymYnt-OKIHyIZnd5Fwz-59" style="edgeStyle=orthogonalEdgeStyle;rounded=0;orthogonalLoop=1;jettySize=auto;html=1;" edge="1" parent="1" source="6ymYnt-OKIHyIZnd5Fwz-57" target="6ymYnt-OKIHyIZnd5Fwz-58">
          <mxGeometry relative="1" as="geometry" />
        </mxCell>
        <mxCell id="6ymYnt-OKIHyIZnd5Fwz-57" value="Caracterización de la serie temporal y creación de tendencia" style="rhombus;whiteSpace=wrap;html=1;fontSize=12;" vertex="1" parent="1">
          <mxGeometry x="445" y="980" width="175" height="160" as="geometry" />
        </mxCell>
        <mxCell id="6ymYnt-OKIHyIZnd5Fwz-58" value="Tendencia de la productividad primaria" style="shape=parallelogram;perimeter=parallelogramPerimeter;whiteSpace=wrap;html=1;fixedSize=1;" vertex="1" parent="1">
          <mxGeometry x="730" y="1030" width="160" height="60" as="geometry" />
        </mxCell>
        <mxCell id="6ymYnt-OKIHyIZnd5Fwz-64" style="edgeStyle=orthogonalEdgeStyle;rounded=0;orthogonalLoop=1;jettySize=auto;html=1;entryX=0;entryY=0.5;entryDx=0;entryDy=0;" edge="1" parent="1" source="6ymYnt-OKIHyIZnd5Fwz-62">
          <mxGeometry relative="1" as="geometry">
            <mxPoint x="275" y="940" as="targetPoint" />
          </mxGeometry>
        </mxCell>
        <mxCell id="6ymYnt-OKIHyIZnd5Fwz-62" value="GBIF" style="shape=cylinder3;whiteSpace=wrap;html=1;boundedLbl=1;backgroundOutline=1;size=15;" vertex="1" parent="1">
          <mxGeometry x="160" y="910" width="60" height="60" as="geometry" />
        </mxCell>
        <mxCell id="6ymYnt-OKIHyIZnd5Fwz-68" value="" style="edgeStyle=orthogonalEdgeStyle;rounded=0;orthogonalLoop=1;jettySize=auto;html=1;" edge="1" parent="1" source="6ymYnt-OKIHyIZnd5Fwz-65" target="6ymYnt-OKIHyIZnd5Fwz-67">
          <mxGeometry relative="1" as="geometry" />
        </mxCell>
        <mxCell id="6ymYnt-OKIHyIZnd5Fwz-65" value="Descarga de datos, depuración de datos, espacialización y cálculo del índice de Shanon" style="rhombus;whiteSpace=wrap;html=1;" vertex="1" parent="1">
          <mxGeometry x="270" y="890" width="206" height="100" as="geometry" />
        </mxCell>
        <mxCell id="6ymYnt-OKIHyIZnd5Fwz-67" value="..." style="whiteSpace=wrap;html=1;" vertex="1" parent="1">
          <mxGeometry x="599" y="910" width="120" height="60" as="geometry" />
        </mxCell>
        <mxCell id="8uNOAsqcAC4Zf92Hd2os-5" style="edgeStyle=orthogonalEdgeStyle;rounded=0;orthogonalLoop=1;jettySize=auto;html=1;entryX=0;entryY=0.5;entryDx=0;entryDy=0;" edge="1" parent="1" source="8uNOAsqcAC4Zf92Hd2os-1" target="8uNOAsqcAC4Zf92Hd2os-3">
          <mxGeometry relative="1" as="geometry" />
        </mxCell>
        <mxCell id="8uNOAsqcAC4Zf92Hd2os-1" value="Imágenes de satélite Copernicus" style="shape=cylinder3;whiteSpace=wrap;html=1;boundedLbl=1;backgroundOutline=1;size=15;" vertex="1" parent="1">
          <mxGeometry x="90" y="35" width="140" height="70" as="geometry" />
        </mxCell>
        <mxCell id="8uNOAsqcAC4Zf92Hd2os-2" style="edgeStyle=orthogonalEdgeStyle;rounded=0;orthogonalLoop=1;jettySize=auto;html=1;entryX=0;entryY=0.5;entryDx=0;entryDy=0;" edge="1" parent="1" source="8uNOAsqcAC4Zf92Hd2os-3" target="8uNOAsqcAC4Zf92Hd2os-4">
          <mxGeometry relative="1" as="geometry" />
        </mxCell>
        <mxCell id="8uNOAsqcAC4Zf92Hd2os-3" value="Teledetección" style="rhombus;whiteSpace=wrap;html=1;" vertex="1" parent="1">
          <mxGeometry x="310" y="45" width="90" height="50" as="geometry" />
        </mxCell>
        <mxCell id="8uNOAsqcAC4Zf92Hd2os-11" style="edgeStyle=orthogonalEdgeStyle;rounded=0;orthogonalLoop=1;jettySize=auto;html=1;entryX=0;entryY=0.5;entryDx=0;entryDy=0;" edge="1" parent="1" source="8uNOAsqcAC4Zf92Hd2os-4" target="8uNOAsqcAC4Zf92Hd2os-9">
          <mxGeometry relative="1" as="geometry" />
        </mxCell>
        <mxCell id="8uNOAsqcAC4Zf92Hd2os-4" value="Densidad de los pinares de repoblación 1" style="shape=parallelogram;perimeter=parallelogramPerimeter;whiteSpace=wrap;html=1;fixedSize=1;" vertex="1" parent="1">
          <mxGeometry x="500" y="40" width="120" height="60" as="geometry" />
        </mxCell>
        <mxCell id="8uNOAsqcAC4Zf92Hd2os-13" value="" style="edgeStyle=orthogonalEdgeStyle;rounded=0;orthogonalLoop=1;jettySize=auto;html=1;" edge="1" parent="1" source="8uNOAsqcAC4Zf92Hd2os-9">
          <mxGeometry relative="1" as="geometry">
            <mxPoint x="850" y="70" as="targetPoint" />
          </mxGeometry>
        </mxCell>
        <mxCell id="8uNOAsqcAC4Zf92Hd2os-9" value="Cambio de unidades&lt;div&gt;(% a pies/ha)&lt;/div&gt;" style="rhombus;whiteSpace=wrap;html=1;" vertex="1" parent="1">
          <mxGeometry x="660" y="30" width="150" height="80" as="geometry" />
        </mxCell>
        <mxCell id="8uNOAsqcAC4Zf92Hd2os-15" style="edgeStyle=orthogonalEdgeStyle;rounded=0;orthogonalLoop=1;jettySize=auto;html=1;entryX=0.5;entryY=1;entryDx=0;entryDy=0;" edge="1" parent="1" source="8uNOAsqcAC4Zf92Hd2os-14" target="8uNOAsqcAC4Zf92Hd2os-9">
          <mxGeometry relative="1" as="geometry" />
        </mxCell>
        <mxCell id="8uNOAsqcAC4Zf92Hd2os-14" value="Hacer una regla de tres para reescalar con la densidad mínima y máxima de los inventarios forestales.&amp;nbsp;" style="text;html=1;strokeColor=#b85450;fillColor=#f8cecc;align=center;verticalAlign=middle;whiteSpace=wrap;rounded=0;" vertex="1" parent="1">
          <mxGeometry x="660" y="160" width="230" height="55" as="geometry" />
        </mxCell>
        <mxCell id="8uNOAsqcAC4Zf92Hd2os-19" style="edgeStyle=orthogonalEdgeStyle;rounded=0;orthogonalLoop=1;jettySize=auto;html=1;entryX=0;entryY=0.5;entryDx=0;entryDy=0;" edge="1" parent="1" source="8uNOAsqcAC4Zf92Hd2os-18" target="6ymYnt-OKIHyIZnd5Fwz-9">
          <mxGeometry relative="1" as="geometry" />
        </mxCell>
        <mxCell id="8uNOAsqcAC4Zf92Hd2os-18" value="Densidad de los pinares de repoblación&lt;div&gt;(definitiva)&lt;/div&gt;" style="shape=parallelogram;perimeter=parallelogramPerimeter;whiteSpace=wrap;html=1;fixedSize=1;" vertex="1" parent="1">
          <mxGeometry x="840" y="40" width="210" height="60" as="geometry" />
        </mxCell>
      </root>
    </mxGraphModel>
  </diagram>
</mxfile>
